<svg width="194" height="66" viewBox="0 0 194 66" fill="none" xmlns="http://www.w3.org/2000/svg">
<rect x="0.999756" y="1" width="192" height="64" rx="12" fill="#0B090D"/>
<rect x="0.999756" y="1" width="192" height="64" rx="12" stroke="#1F1B26" stroke-width="2"/>
<path d="M41.1066 32.823C41.1245 31.4343 41.4945 30.0726 42.1819 28.8648C42.8694 27.6569 43.8521 26.6421 45.0385 25.9147C44.2848 24.8412 43.2905 23.9579 42.1345 23.3347C40.9785 22.7115 39.6927 22.3657 38.3793 22.3247C35.5774 22.0314 32.8612 23.9965 31.4334 23.9965C29.978 23.9965 27.7798 22.3538 25.4126 22.4024C23.8815 22.4517 22.3893 22.8957 21.0814 23.6911C19.7735 24.4865 18.6945 25.6062 17.9495 26.9411C14.7227 32.5123 17.1296 40.7001 20.2207 45.2035C21.7672 47.4086 23.5747 49.8719 25.9397 49.7845C28.254 49.6888 29.1184 48.3129 31.912 48.3129C34.6796 48.3129 35.4905 49.7845 37.9036 49.729C40.3869 49.6888 41.9516 47.514 43.4439 45.288C44.5551 43.7167 45.4101 41.9801 45.9774 40.1425C44.5346 39.534 43.3034 38.5155 42.4372 37.2138C41.571 35.9122 41.1083 34.3852 41.1066 32.823Z" fill="white"/>
<path d="M36.549 19.363C37.903 17.7421 38.5701 15.6587 38.4086 13.5552C36.3399 13.7718 34.429 14.7578 33.0567 16.3165C32.3857 17.078 31.8718 17.9639 31.5444 18.9235C31.217 19.8832 31.0824 20.8977 31.1484 21.9093C32.1831 21.9199 33.2067 21.6963 34.1422 21.2552C35.0777 20.8141 35.9006 20.1672 36.549 19.363Z" fill="white"/>
<path d="M68.8724 44.4234H61.2777L59.4539 49.7938H56.2371L63.4306 29.925H66.7728L73.9664 49.7938H70.6947L68.8724 44.4234ZM62.0643 41.9453H68.0844L65.1167 33.2297H65.0336L62.0643 41.9453Z" fill="white"/>
<path d="M89.502 42.5516C89.502 47.0532 87.0859 49.9454 83.4397 49.9454C82.5161 49.9936 81.5975 49.7814 80.7892 49.3332C79.9809 48.885 79.3154 48.2188 78.8691 47.411H78.8001V54.586H75.8184V35.3079H78.7046V37.7173H78.7594C79.2262 36.9133 79.9029 36.2506 80.7174 35.7997C81.5319 35.3487 82.4537 35.1264 83.3848 35.1563C87.0718 35.1563 89.502 38.0626 89.502 42.5516ZM86.4372 42.5516C86.4372 39.6188 84.9173 37.6907 82.5983 37.6907C80.3201 37.6907 78.7876 39.6594 78.7876 42.5516C78.7876 45.4704 80.3201 47.4251 82.5983 47.4251C84.9173 47.4251 86.4371 45.511 86.4371 42.5516H86.4372Z" fill="white"/>
<path d="M105.491 42.5516C105.491 47.0532 103.074 49.9454 99.4283 49.9454C98.5046 49.9936 97.5861 49.7814 96.7777 49.3332C95.9694 48.885 95.304 48.2188 94.8577 47.411H94.7887V54.586H91.8069V35.3079H94.6931V37.7173H94.7479C95.2148 36.9133 95.8914 36.2506 96.7059 35.7997C97.5204 35.3487 98.4422 35.1264 99.3734 35.1563C103.06 35.1563 105.491 38.0626 105.491 42.5516ZM102.426 42.5516C102.426 39.6188 100.906 37.6907 98.5868 37.6907C96.3086 37.6907 94.7762 39.6594 94.7762 42.5516C94.7762 45.4704 96.3086 47.4251 98.5868 47.4251C100.906 47.4251 102.426 45.511 102.426 42.5516Z" fill="white"/>
<path d="M116.057 44.2578C116.278 46.2281 118.197 47.5218 120.82 47.5218C123.333 47.5218 125.142 46.2281 125.142 44.4515C125.142 42.9093 124.051 41.9859 121.469 41.3531L118.887 40.7327C115.228 39.8515 113.529 38.1452 113.529 35.3765C113.529 31.9484 116.525 29.5937 120.778 29.5937C124.99 29.5937 127.876 31.9484 127.973 35.3765H124.963C124.783 33.3937 123.139 32.1968 120.737 32.1968C118.335 32.1968 116.691 33.4078 116.691 35.1702C116.691 36.5749 117.741 37.4015 120.309 38.0342L122.504 38.5718C126.592 39.5358 128.289 41.1734 128.289 44.0796C128.289 47.7967 125.322 50.1249 120.599 50.1249C116.18 50.1249 113.197 47.8514 113.004 44.2577L116.057 44.2578Z" fill="white"/>
<path d="M134.728 31.8797V35.3078H137.49V37.6625H134.728V45.6485C134.728 46.8891 135.281 47.4672 136.495 47.4672C136.823 47.4615 137.151 47.4385 137.476 47.3984V49.739C136.93 49.8408 136.375 49.8868 135.82 49.8765C132.879 49.8765 131.732 48.775 131.732 45.9656V37.6625H129.62V35.3078H131.732V31.8797H134.728Z" fill="white"/>
<path d="M139.089 42.5516C139.089 37.9938 141.781 35.1297 145.978 35.1297C150.19 35.1297 152.869 37.9937 152.869 42.5516C152.869 47.1219 150.204 49.9735 145.978 49.9735C141.754 49.9735 139.089 47.1219 139.089 42.5516ZM149.831 42.5516C149.831 39.425 148.394 37.5797 145.978 37.5797C143.562 37.5797 142.125 39.4391 142.125 42.5516C142.125 45.6906 143.562 47.5219 145.978 47.5219C148.394 47.5219 149.831 45.6906 149.831 42.5516H149.831Z" fill="white"/>
<path d="M155.328 35.3078H158.172V37.7734H158.241C158.433 37.0034 158.885 36.3228 159.522 35.8462C160.158 35.3696 160.939 35.126 161.735 35.1562C162.078 35.1551 162.421 35.1923 162.756 35.2672V38.0484C162.322 37.9163 161.87 37.8556 161.417 37.8688C160.983 37.8512 160.552 37.9274 160.151 38.092C159.75 38.2566 159.389 38.5058 159.094 38.8224C158.799 39.1391 158.576 39.5156 158.441 39.9263C158.305 40.337 158.26 40.772 158.309 41.2016V49.7938H155.328L155.328 35.3078Z" fill="white"/>
<path d="M176.504 45.5391C176.103 48.1688 173.535 49.9735 170.249 49.9735C166.023 49.9735 163.4 47.15 163.4 42.6203C163.4 38.0766 166.037 35.1297 170.124 35.1297C174.143 35.1297 176.67 37.8828 176.67 42.275V43.2938H166.41V43.4735C166.363 44.0066 166.43 44.5436 166.607 45.049C166.784 45.5543 167.066 46.0164 167.436 46.4045C167.805 46.7925 168.253 47.0978 168.75 47.2999C169.247 47.5019 169.782 47.5963 170.318 47.5766C171.023 47.6424 171.73 47.4797 172.334 47.1126C172.939 46.7455 173.408 46.1936 173.673 45.5391L176.504 45.5391ZM166.424 41.2157H173.687C173.714 40.7363 173.641 40.2566 173.473 39.8067C173.305 39.3567 173.046 38.9463 172.711 38.601C172.376 38.2558 171.974 37.9833 171.529 37.8005C171.084 37.6178 170.605 37.5288 170.124 37.5391C169.638 37.5362 169.157 37.6292 168.708 37.8128C168.258 37.9964 167.85 38.2669 167.506 38.6087C167.162 38.9505 166.889 39.3569 166.704 39.8043C166.518 40.2518 166.423 40.7314 166.424 41.2157V41.2157Z" fill="white"/>
<path d="M61.6915 14.9696C62.3166 14.9249 62.9439 15.0191 63.5282 15.2454C64.1124 15.4716 64.6389 15.8244 65.0699 16.2782C65.5008 16.732 65.8254 17.2755 66.0202 17.8696C66.215 18.4636 66.2751 19.0933 66.1963 19.7134C66.1963 22.7634 64.5433 24.5166 61.6915 24.5166H58.2334V14.9696H61.6915ZM59.7204 23.1664H61.5254C61.9721 23.193 62.4191 23.12 62.834 22.9526C63.2488 22.7852 63.621 22.5277 63.9234 22.1988C64.2258 21.8699 64.4509 21.4779 64.5823 21.0513C64.7136 20.6247 64.7479 20.1743 64.6827 19.7328C64.7432 19.2931 64.7054 18.8455 64.572 18.422C64.4387 17.9985 64.213 17.6097 63.9113 17.2834C63.6096 16.9571 63.2392 16.7015 62.8267 16.5347C62.4142 16.3679 61.9698 16.2942 61.5254 16.3188H59.7204V23.1664Z" fill="white"/>
<path d="M67.876 20.911C67.8306 20.4375 67.8849 19.9598 68.0354 19.5085C68.186 19.0572 68.4295 18.6422 68.7503 18.2903C69.0711 17.9383 69.4621 17.6571 69.8983 17.4646C70.3345 17.2722 70.8062 17.1728 71.2832 17.1728C71.7601 17.1728 72.2319 17.2722 72.668 17.4646C73.1042 17.6571 73.4952 17.9383 73.8161 18.2903C74.1369 18.6422 74.3804 19.0572 74.5309 19.5085C74.6815 19.9598 74.7358 20.4375 74.6904 20.911C74.7367 21.385 74.683 21.8633 74.5328 22.3154C74.3827 22.7674 74.1393 23.1831 73.8184 23.5358C73.4975 23.8884 73.1062 24.1703 72.6696 24.3631C72.233 24.556 71.7607 24.6556 71.2832 24.6556C70.8056 24.6556 70.3334 24.556 69.8968 24.3631C69.4602 24.1703 69.0688 23.8884 68.7479 23.5358C68.427 23.1831 68.1837 22.7674 68.0335 22.3154C67.8834 21.8633 67.8297 21.385 67.876 20.911ZM73.2238 20.911C73.2238 19.3493 72.5202 18.436 71.2855 18.436C70.0461 18.436 69.3489 19.3493 69.3489 20.911C69.3489 22.4852 70.0462 23.3915 71.2855 23.3915C72.5203 23.3915 73.2238 22.479 73.2238 20.911H73.2238Z" fill="white"/>
<path d="M83.7487 24.5164H82.2696L80.7763 19.2102H80.6635L79.1765 24.5164H77.7115L75.72 17.3117H77.1662L78.4605 22.8093H78.567L80.0524 17.3117H81.4203L82.9057 22.8093H83.0185L84.3065 17.3117H85.7324L83.7487 24.5164Z" fill="white"/>
<path d="M87.4072 17.3117H88.7798V18.4562H88.8864C89.0671 18.0452 89.372 17.7006 89.7585 17.4705C90.1449 17.2404 90.5938 17.1363 91.0424 17.1726C91.394 17.1463 91.7469 17.1992 92.0752 17.3273C92.4035 17.4555 92.6986 17.6556 92.9388 17.913C93.179 18.1703 93.358 18.4783 93.4626 18.814C93.5672 19.1497 93.5948 19.5046 93.5432 19.8523V24.5163H92.1173V20.2094C92.1173 19.0516 91.6128 18.4758 90.5582 18.4758C90.3196 18.4647 90.0813 18.5052 89.8598 18.5945C89.6383 18.6839 89.4388 18.8199 89.2749 18.9933C89.111 19.1667 88.9867 19.3734 88.9105 19.5992C88.8342 19.825 88.8078 20.0646 88.8331 20.3016V24.5164H87.4072L87.4072 17.3117Z" fill="white"/>
<path d="M95.8152 14.4992H97.2411V24.5164H95.8152V14.4992Z" fill="white"/>
<path d="M99.2231 20.911C99.1777 20.4375 99.2321 19.9598 99.3827 19.5084C99.5333 19.0571 99.7768 18.6421 100.098 18.2902C100.418 17.9382 100.81 17.657 101.246 17.4645C101.682 17.2721 102.154 17.1727 102.631 17.1727C103.108 17.1727 103.579 17.2721 104.016 17.4645C104.452 17.657 104.843 17.9382 105.164 18.2902C105.485 18.6421 105.728 19.0571 105.879 19.5084C106.029 19.9598 106.084 20.4375 106.038 20.911C106.084 21.385 106.031 21.8633 105.881 22.3154C105.73 22.7674 105.487 23.1831 105.166 23.5358C104.845 23.8884 104.454 24.1702 104.017 24.3631C103.58 24.5559 103.108 24.6555 102.631 24.6555C102.153 24.6555 101.681 24.5559 101.244 24.3631C100.808 24.1702 100.416 23.8884 100.095 23.5358C99.7744 23.1831 99.531 22.7674 99.3808 22.3154C99.2306 21.8633 99.1769 21.385 99.2231 20.911ZM104.571 20.911C104.571 19.3493 103.867 18.436 102.633 18.436C101.393 18.436 100.696 19.3493 100.696 20.911C100.696 22.4852 101.393 23.3915 102.633 23.3915C103.867 23.3915 104.571 22.479 104.571 20.911H104.571Z" fill="white"/>
<path d="M107.539 22.4789C107.539 21.182 108.508 20.4344 110.227 20.3281L112.184 20.2156V19.5937C112.184 18.8328 111.679 18.4031 110.704 18.4031C109.908 18.4031 109.357 18.6945 109.199 19.2039H107.818C107.964 17.9664 109.131 17.1727 110.77 17.1727C112.582 17.1727 113.603 18.0719 113.603 19.5937V24.5164H112.231V23.5039H112.118C111.889 23.8671 111.567 24.1632 111.186 24.3619C110.805 24.5606 110.377 24.6549 109.948 24.6351C109.644 24.6666 109.338 24.6343 109.048 24.5404C108.758 24.4465 108.491 24.293 108.264 24.0898C108.037 23.8867 107.855 23.6384 107.73 23.3609C107.606 23.0834 107.541 22.783 107.539 22.4789ZM112.184 21.8633V21.2609L110.419 21.3734C109.424 21.4398 108.973 21.7773 108.973 22.4125C108.973 23.0609 109.537 23.4383 110.313 23.4383C110.54 23.4612 110.77 23.4383 110.988 23.371C111.206 23.3036 111.408 23.1932 111.583 23.0462C111.758 22.8993 111.901 22.7188 112.004 22.5156C112.107 22.3124 112.168 22.0905 112.184 21.8633Z" fill="white"/>
<path d="M115.477 20.911C115.477 18.6344 116.651 17.1922 118.476 17.1922C118.928 17.1715 119.376 17.2793 119.768 17.5032C120.161 17.727 120.481 18.0576 120.692 18.4562H120.798V14.4992H122.224V24.5164H120.858V23.3781H120.745C120.518 23.7741 120.186 24.1006 119.787 24.3221C119.387 24.5437 118.934 24.652 118.476 24.6352C116.638 24.6352 115.477 23.193 115.477 20.911ZM116.95 20.911C116.95 22.4391 117.673 23.3586 118.881 23.3586C120.082 23.3586 120.825 22.4258 120.825 20.9172C120.825 19.4157 120.075 18.4696 118.881 18.4696C117.68 18.4696 116.95 19.3953 116.95 20.911H116.95Z" fill="white"/>
<path d="M128.124 20.911C128.078 20.4375 128.132 19.9598 128.283 19.5085C128.434 19.0572 128.677 18.6422 128.998 18.2903C129.319 17.9383 129.71 17.6571 130.146 17.4646C130.582 17.2722 131.054 17.1728 131.531 17.1728C132.008 17.1728 132.479 17.2722 132.916 17.4646C133.352 17.6571 133.743 17.9383 134.064 18.2903C134.384 18.6422 134.628 19.0572 134.778 19.5085C134.929 19.9598 134.983 20.4375 134.938 20.911C134.984 21.385 134.931 21.8633 134.78 22.3154C134.63 22.7674 134.387 23.1831 134.066 23.5358C133.745 23.8884 133.354 24.1703 132.917 24.3631C132.481 24.556 132.008 24.6556 131.531 24.6556C131.053 24.6556 130.581 24.556 130.144 24.3631C129.708 24.1703 129.316 23.8884 128.995 23.5358C128.675 23.1831 128.431 22.7674 128.281 22.3154C128.131 21.8633 128.077 21.385 128.124 20.911ZM133.471 20.911C133.471 19.3493 132.768 18.436 131.533 18.436C130.294 18.436 129.596 19.3493 129.596 20.911C129.596 22.4852 130.294 23.3915 131.533 23.3915C132.768 23.3915 133.471 22.479 133.471 20.911Z" fill="white"/>
<path d="M136.851 17.3117H138.224V18.4562H138.33C138.511 18.0452 138.816 17.7006 139.202 17.4705C139.589 17.2404 140.038 17.1363 140.486 17.1726C140.838 17.1463 141.191 17.1992 141.519 17.3273C141.847 17.4555 142.142 17.6556 142.383 17.913C142.623 18.1703 142.802 18.4783 142.906 18.814C143.011 19.1497 143.039 19.5046 142.987 19.8523V24.5163H141.561V20.2094C141.561 19.0516 141.057 18.4758 140.002 18.4758C139.763 18.4647 139.525 18.5052 139.304 18.5945C139.082 18.6839 138.883 18.8199 138.719 18.9933C138.555 19.1667 138.431 19.3734 138.354 19.5992C138.278 19.825 138.252 20.0646 138.277 20.3016V24.5164H136.851V17.3117Z" fill="white"/>
<path d="M151.044 15.518V17.3446H152.609V18.5422H151.044V22.2469C151.044 23.0016 151.356 23.3321 152.065 23.3321C152.247 23.3315 152.429 23.3205 152.609 23.2993V24.4836C152.353 24.5293 152.094 24.5536 151.834 24.5563C150.248 24.5563 149.616 24 149.616 22.611V18.5422H148.469V17.3445H149.616V15.518H151.044Z" fill="white"/>
<path d="M154.557 14.4992H155.97V18.4696H156.083C156.273 18.0546 156.586 17.7081 156.98 17.4771C157.374 17.2462 157.831 17.1421 158.286 17.1789C158.636 17.16 158.986 17.2182 159.31 17.3494C159.635 17.4807 159.926 17.6818 160.164 17.9383C160.401 18.1949 160.579 18.5006 160.685 18.8336C160.791 19.1666 160.821 19.5187 160.774 19.8649V24.5164H159.347V20.2156C159.347 19.0649 158.81 18.482 157.802 18.482C157.557 18.462 157.311 18.4956 157.08 18.5805C156.849 18.6654 156.64 18.7995 156.467 18.9735C156.293 19.1474 156.16 19.3571 156.077 19.5877C155.993 19.8183 155.961 20.0644 155.983 20.3086V24.5164H154.557L154.557 14.4992Z" fill="white"/>
<path d="M169.088 22.5711C168.895 23.2296 168.475 23.7992 167.903 24.1802C167.33 24.5612 166.642 24.7295 165.958 24.6555C165.482 24.668 165.009 24.5771 164.571 24.3891C164.134 24.201 163.743 23.9203 163.426 23.5665C163.108 23.2127 162.872 22.7942 162.732 22.3401C162.593 21.886 162.555 21.4071 162.62 20.9368C162.557 20.4649 162.596 19.9851 162.735 19.5296C162.873 19.0741 163.109 18.6537 163.424 18.2968C163.74 17.9398 164.129 17.6548 164.565 17.4608C165.001 17.2669 165.474 17.1686 165.951 17.1727C167.962 17.1727 169.174 18.5423 169.174 20.8047V21.3008H164.073V21.3805C164.05 21.6449 164.084 21.911 164.171 22.1618C164.257 22.4126 164.396 22.6426 164.577 22.8369C164.758 23.0312 164.978 23.1857 165.223 23.2903C165.467 23.3949 165.731 23.4475 165.997 23.4445C166.338 23.4854 166.683 23.4241 166.989 23.2686C167.296 23.113 167.548 22.8703 167.716 22.5711L169.088 22.5711ZM164.073 20.2493H167.722C167.74 20.0075 167.707 19.7646 167.625 19.5362C167.543 19.3079 167.415 19.0991 167.247 18.9233C167.08 18.7476 166.877 18.6087 166.653 18.5156C166.428 18.4225 166.187 18.3773 165.943 18.3829C165.697 18.3798 165.452 18.4259 165.224 18.5187C164.995 18.6114 164.788 18.7487 164.613 18.9227C164.439 19.0966 164.301 19.3036 164.209 19.5314C164.116 19.7593 164.069 20.0033 164.073 20.2493H164.073Z" fill="white"/>
</svg>
