<svg width="218" height="66" viewBox="0 0 218 66" fill="none" xmlns="http://www.w3.org/2000/svg">
<g clip-path="url(#clip0_45_1246)">
<rect x="0.999756" y="1" width="216" height="64" rx="12" fill="#0B090D"/>
<path d="M76.8717 17.384C76.898 17.9707 76.8052 18.5568 76.599 19.1067C76.3927 19.6567 76.0773 20.1592 75.6717 20.584C75.2172 21.0533 74.6686 21.4213 74.0621 21.6639C73.4555 21.9065 72.8045 22.0183 72.1517 21.992C71.4951 22.0066 70.8426 21.8864 70.2344 21.6387C69.6261 21.391 69.0752 21.0211 68.6157 20.552C67.6834 19.5983 67.1614 18.3176 67.1614 16.984C67.1614 15.6503 67.6834 14.3696 68.6157 13.416C69.3285 12.7195 70.2312 12.2492 71.2105 12.0641C72.1898 11.8791 73.2019 11.9876 74.1197 12.376C74.6967 12.6132 75.2113 12.98 75.6237 13.448L74.7757 14.296C74.458 13.9132 74.0554 13.6098 73.5999 13.4098C73.1444 13.2099 72.6485 13.1188 72.1517 13.144C71.5245 13.1483 70.908 13.3062 70.3559 13.6038C69.8039 13.9015 69.3331 14.3298 68.9848 14.8514C68.6365 15.373 68.4213 15.9719 68.3579 16.5959C68.2945 17.2199 68.385 17.8498 68.6213 18.4308C68.8576 19.0117 69.2326 19.526 69.7136 19.9285C70.1945 20.3311 70.7667 20.6097 71.3802 20.7401C71.9937 20.8704 72.6298 20.8485 73.2328 20.6762C73.8359 20.504 74.3876 20.1867 74.8397 19.752C75.3284 19.2161 75.6118 18.5247 75.6397 17.8H72.1517V16.648H76.8077C76.8441 16.8918 76.8655 17.1376 76.8717 17.384Z" fill="white" stroke="white" stroke-width="0.29913" stroke-miterlimit="10"/>
<path d="M84.1998 13.384H79.8798V16.424H83.8158V17.576H79.8798V20.616H84.1998V21.8H78.6318V12.2H84.1998V13.384Z" fill="white" stroke="white" stroke-width="0.29913" stroke-miterlimit="10"/>
<path d="M89.4478 21.8H88.2158V13.384H85.5278V12.2H92.1998V13.384H89.4478V21.8Z" fill="white" stroke="white" stroke-width="0.29913" stroke-miterlimit="10"/>
<path d="M96.9038 21.8V12.2H98.1358V21.8H96.9038Z" fill="white" stroke="white" stroke-width="0.29913" stroke-miterlimit="10"/>
<path d="M103.608 21.8H102.376V13.384H99.6877V12.2H106.28V13.384H103.608V21.8Z" fill="white" stroke="white" stroke-width="0.29913" stroke-miterlimit="10"/>
<path d="M118.776 20.552C118.314 21.0145 117.765 21.3814 117.161 21.6317C116.557 21.882 115.91 22.0108 115.256 22.0108C114.602 22.0108 113.955 21.882 113.351 21.6317C112.747 21.3814 112.198 21.0145 111.736 20.552C110.831 19.5905 110.328 18.3201 110.328 17C110.328 15.6799 110.831 14.4095 111.736 13.448C112.188 12.9725 112.735 12.5971 113.341 12.3463C113.948 12.0955 114.6 11.9748 115.256 11.992C115.911 11.9816 116.561 12.1054 117.166 12.3559C117.772 12.6063 118.319 12.9779 118.776 13.448C119.236 13.916 119.597 14.4714 119.839 15.0815C120.081 15.6915 120.198 16.3439 120.184 17C120.205 17.6569 120.091 18.3111 119.848 18.9221C119.606 19.5331 119.241 20.0879 118.776 20.552ZM112.648 19.752C112.989 20.0974 113.395 20.3716 113.842 20.5588C114.29 20.746 114.771 20.8424 115.256 20.8424C115.741 20.8424 116.221 20.746 116.669 20.5588C117.117 20.3716 117.523 20.0974 117.864 19.752C118.554 19.0018 118.937 18.0195 118.937 17C118.937 15.9805 118.554 14.9982 117.864 14.248C117.523 13.9026 117.117 13.6283 116.669 13.4411C116.221 13.2539 115.741 13.1575 115.256 13.1575C114.771 13.1575 114.29 13.2539 113.842 13.4411C113.395 13.6283 112.989 13.9026 112.648 14.248C111.957 14.9982 111.574 15.9805 111.574 17C111.574 18.0195 111.957 19.0018 112.648 19.752Z" fill="white" stroke="white" stroke-width="0.29913" stroke-miterlimit="10"/>
<path d="M121.928 21.8V12.2H123.416L128.088 19.672V17.816V12.2H129.32V21.8H128.04L123.16 13.976V15.816V21.8H121.928Z" fill="white" stroke="white" stroke-width="0.29913" stroke-miterlimit="10"/>
<path d="M110.024 35.8C108.676 35.8032 107.359 36.206 106.24 36.9576C105.121 37.7092 104.249 38.7758 103.737 40.0224C103.224 41.2691 103.092 42.6399 103.358 43.9614C103.624 45.283 104.276 46.4959 105.231 47.4469C106.187 48.3979 107.403 49.0442 108.726 49.3041C110.049 49.564 111.419 49.4258 112.663 48.907C113.907 48.3882 114.97 47.5121 115.716 46.3895C116.462 45.2668 116.859 43.9481 116.856 42.6C116.869 41.7007 116.701 40.808 116.362 39.975C116.023 39.142 115.519 38.3857 114.882 37.7512C114.244 37.1168 113.486 36.617 112.651 36.2818C111.817 35.9466 110.923 35.7828 110.024 35.8ZM110.024 46.728C109.197 46.7858 108.373 46.5937 107.657 46.1766C106.942 45.7596 106.368 45.1369 106.011 44.3895C105.654 43.6421 105.53 42.8046 105.655 41.9859C105.78 41.1671 106.149 40.4049 106.713 39.7985C107.277 39.192 108.011 38.7693 108.819 38.5853C109.626 38.4012 110.47 38.4644 111.242 38.7666C112.013 39.0687 112.675 39.5959 113.143 40.2795C113.611 40.9632 113.862 41.7717 113.864 42.6C113.89 43.1248 113.81 43.6495 113.63 44.1431C113.45 44.6367 113.172 45.0892 112.814 45.4739C112.456 45.8586 112.025 46.1678 111.546 46.3832C111.067 46.5986 110.549 46.7158 110.024 46.728ZM95.1118 35.8C93.7637 35.8032 92.4468 36.206 91.3277 36.9576C90.2086 37.7092 89.3375 38.7758 88.8245 40.0224C88.3115 41.2691 88.1798 42.6399 88.4459 43.9614C88.712 45.283 89.364 46.4959 90.3195 47.4469C91.2749 48.3979 92.491 49.0442 93.8137 49.3041C95.1365 49.564 96.5067 49.4258 97.7509 48.907C98.9952 48.3882 100.058 47.5121 100.804 46.3895C101.55 45.2668 101.947 43.9481 101.944 42.6C101.957 41.7007 101.789 40.808 101.45 39.975C101.111 39.142 100.607 38.3857 99.9698 37.7512C99.3323 37.1168 98.5737 36.617 97.7391 36.2818C96.9045 35.9466 96.011 35.7828 95.1118 35.8ZM95.1118 46.728C94.2855 46.7858 93.4609 46.5937 92.7453 46.1766C92.0297 45.7596 91.456 45.1369 91.099 44.3895C90.7419 43.6421 90.618 42.8046 90.7432 41.9859C90.8685 41.1671 91.2372 40.4049 91.8013 39.7985C92.3655 39.192 93.099 38.7693 93.9066 38.5853C94.7142 38.4012 95.5584 38.4644 96.3297 38.7666C97.1009 39.0687 97.7633 39.5959 98.231 40.2795C98.6986 40.9632 98.9497 41.7717 98.9518 42.6C98.9775 43.1248 98.898 43.6495 98.7177 44.1431C98.5375 44.6367 98.2603 45.0892 97.9024 45.4739C97.5445 45.8586 97.1132 46.1678 96.6339 46.3832C96.1546 46.5986 95.6371 46.7158 95.1118 46.728ZM77.3838 37.896V40.776H84.2958C84.1874 42.1325 83.6235 43.4125 82.6958 44.408C82.0024 45.1144 81.1685 45.6674 80.2479 46.0312C79.3274 46.3951 78.3407 46.5616 77.3518 46.52C75.3149 46.52 73.3615 45.7109 71.9212 44.2706C70.4809 42.8303 69.6718 40.8769 69.6718 38.84C69.6718 36.8032 70.4809 34.8497 71.9212 33.4094C73.3615 31.9692 75.3149 31.16 77.3518 31.16C79.3045 31.131 81.19 31.8725 82.5998 33.224L84.6318 31.192C83.6781 30.2488 82.5459 29.5054 81.3013 29.0054C80.0567 28.5054 78.7249 28.2588 77.3838 28.28C75.9614 28.2247 74.5424 28.457 73.212 28.9632C71.8815 29.4693 70.6669 30.2388 69.641 31.2256C68.615 32.2124 67.7989 33.3962 67.2414 34.7059C66.6839 36.0157 66.3965 37.4245 66.3965 38.848C66.3965 40.2715 66.6839 41.6803 67.2414 42.9901C67.7989 44.2999 68.615 45.4836 69.641 46.4704C70.6669 47.4572 71.8815 48.2267 73.212 48.7329C74.5424 49.239 75.9614 49.4714 77.3838 49.416C78.7524 49.4707 80.1172 49.2352 81.3884 48.7251C82.6596 48.2149 83.8086 47.4417 84.7598 46.456C86.44 44.6103 87.3352 42.1827 87.2558 39.688C87.2615 39.0876 87.2133 38.4878 87.1118 37.896H77.3838ZM149.88 40.136C149.462 38.9084 148.682 37.8365 147.642 37.0622C146.602 36.2879 145.351 35.8477 144.056 35.8C143.181 35.7983 142.314 35.9761 141.511 36.3225C140.707 36.6688 139.983 37.1763 139.383 37.8137C138.783 38.451 138.32 39.2046 138.023 40.0278C137.726 40.8511 137.601 41.7265 137.656 42.6C137.642 44.0606 138.101 45.4864 138.965 46.6644C139.828 47.8425 141.05 48.7096 142.447 49.1362C143.843 49.5629 145.341 49.5262 146.715 49.0315C148.09 48.5369 149.267 47.611 150.072 46.392L147.752 44.792C147.406 45.3685 146.915 45.8445 146.329 46.1729C145.742 46.5012 145.08 46.6706 144.408 46.664C143.714 46.6927 143.028 46.5108 142.44 46.1425C141.852 45.7741 141.389 45.2364 141.112 44.6L150.216 40.84L149.88 40.136ZM140.6 42.408C140.567 41.911 140.634 41.4126 140.797 40.9418C140.96 40.471 141.215 40.0375 141.547 39.6665C141.879 39.2954 142.282 38.9945 142.732 38.7811C143.182 38.5678 143.67 38.4464 144.168 38.424C144.683 38.3926 145.197 38.5139 145.643 38.7729C146.09 39.0319 146.451 39.417 146.68 39.88L140.6 42.408ZM133.208 49H136.2V29H133.208V49ZM128.312 37.32H128.2C127.753 36.811 127.201 36.4045 126.583 36.1284C125.964 35.8522 125.293 35.7129 124.616 35.72C122.867 35.8048 121.218 36.5591 120.011 37.8266C118.803 39.094 118.13 40.7775 118.13 42.528C118.13 44.2786 118.803 45.962 120.011 47.2295C121.218 48.4969 122.867 49.2512 124.616 49.336C125.294 49.3496 125.967 49.2133 126.587 48.9367C127.206 48.6601 127.757 48.2501 128.2 47.736H128.312V48.712C128.312 51.32 126.92 52.712 124.68 52.712C123.931 52.6956 123.205 52.4571 122.592 52.027C121.98 51.5968 121.509 50.9943 121.24 50.296L118.648 51.368C119.127 52.5716 119.96 53.6014 121.037 54.3214C122.114 55.0413 123.384 55.4174 124.68 55.4C128.184 55.4 131.08 53.336 131.08 48.312V36.2H128.312V37.32ZM124.872 46.728C123.823 46.6627 122.839 46.2001 122.12 45.4347C121.401 44.6692 121.001 43.6584 121.001 42.608C121.001 41.5577 121.401 40.5468 122.12 39.7814C122.839 39.0159 123.823 38.5534 124.872 38.488C125.384 38.5101 125.887 38.6351 126.35 38.8554C126.813 39.0758 127.227 39.3871 127.567 39.7707C127.908 40.1543 128.167 40.6025 128.331 41.0886C128.495 41.5747 128.559 42.0887 128.52 42.6C128.563 43.1131 128.503 43.6298 128.341 44.1187C128.179 44.6076 127.92 45.0586 127.579 45.4445C127.238 45.8304 126.822 46.1431 126.357 46.3637C125.892 46.5843 125.386 46.7082 124.872 46.728ZM163.896 29H156.728V49H159.72V41.416H163.896C164.748 41.4773 165.605 41.3622 166.411 41.078C167.217 40.7938 167.956 40.3465 168.582 39.764C169.208 39.1815 169.707 38.4764 170.048 37.6926C170.39 36.9087 170.566 36.0629 170.566 35.208C170.566 34.3531 170.39 33.5073 170.048 32.7235C169.707 31.9396 169.208 31.2345 168.582 30.652C167.956 30.0696 167.217 29.6223 166.411 29.3381C165.605 29.0538 164.748 28.9388 163.896 29ZM163.896 38.6H159.72V31.784H163.96C164.409 31.784 164.855 31.8726 165.27 32.0447C165.685 32.2167 166.063 32.4689 166.381 32.7869C166.699 33.1048 166.951 33.4823 167.123 33.8977C167.295 34.3131 167.384 34.7584 167.384 35.208C167.384 35.6577 167.295 36.1029 167.123 36.5183C166.951 36.9337 166.699 37.3112 166.381 37.6292C166.063 37.9471 165.685 38.1993 165.27 38.3714C164.855 38.5435 164.409 38.632 163.96 38.632L163.896 38.6ZM182.36 35.736C181.27 35.6688 180.185 35.9225 179.238 36.4656C178.291 37.0088 177.524 37.8176 177.032 38.792L179.672 39.896C179.939 39.4151 180.339 39.0216 180.824 38.7633C181.31 38.5049 181.86 38.3926 182.408 38.44C182.788 38.3957 183.172 38.4274 183.54 38.5333C183.907 38.6393 184.25 38.8174 184.548 39.0572C184.846 39.2969 185.093 39.5937 185.275 39.93C185.457 40.2663 185.57 40.6355 185.608 41.016V41.208C184.646 40.7023 183.575 40.4387 182.488 40.44C179.64 40.44 176.728 42.04 176.728 44.952C176.756 45.571 176.908 46.1779 177.176 46.7369C177.443 47.2958 177.82 47.7954 178.284 48.2058C178.748 48.6162 179.29 48.9292 179.877 49.1261C180.465 49.323 181.086 49.3998 181.704 49.352C182.455 49.3936 183.203 49.2347 183.872 48.8916C184.541 48.5486 185.107 48.0338 185.512 47.4H185.608V49H188.488V41.304C188.488 37.8 185.832 35.768 182.424 35.768L182.36 35.736ZM181.992 46.696C181.016 46.696 179.656 46.2 179.656 45C179.656 43.4 181.352 42.856 182.856 42.856C183.806 42.8326 184.746 43.0646 185.576 43.528C185.475 44.3969 185.063 45.2 184.416 45.7884C183.769 46.3767 182.93 46.7106 182.056 46.728L181.992 46.696ZM198.984 36.2L195.56 44.872H195.464L191.912 36.2H188.712L194.04 48.328L191 55.064H194.12L202.312 36.2H198.984ZM172.104 49H175.08V29H172.104V49Z" fill="white"/>
<path d="M17.7037 13.064C17.1765 13.6874 16.9074 14.4887 16.9517 15.304V50.696C16.8973 51.5126 17.1675 52.3176 17.7037 52.936L17.8157 53.064L37.6397 33.24V32.76L17.8157 12.952L17.7037 13.064Z" fill="url(#paint0_linear_45_1246)"/>
<path d="M44.1996 39.848L37.6396 33.24V32.76L44.1996 26.152L44.3436 26.248L52.1996 30.696C54.4396 31.96 54.4396 34.04 52.1996 35.32L44.3756 39.768L44.1996 39.848Z" fill="url(#paint1_linear_45_1246)"/>
<path d="M44.3918 39.752L37.6399 33L17.7039 52.936C18.156 53.3384 18.7347 53.5699 19.3396 53.5904C19.9446 53.6108 20.5376 53.4189 21.0159 53.048L44.3918 39.752Z" fill="url(#paint2_linear_45_1246)"/>
<path d="M44.3918 26.248L21.0159 12.968C20.5407 12.5919 19.9481 12.3953 19.3424 12.4128C18.7366 12.4304 18.1564 12.661 17.7039 13.064L37.6399 33L44.3918 26.248Z" fill="url(#paint3_linear_45_1246)"/>
<path opacity="0.2" d="M44.1998 39.608L21.0159 52.808C20.555 53.1558 19.9933 53.344 19.4159 53.344C18.8384 53.344 18.2767 53.1558 17.8159 52.808L17.7039 52.92L17.8159 53.048C18.2767 53.3958 18.8384 53.584 19.4159 53.584C19.9933 53.584 20.555 53.3958 21.0159 53.048L44.3918 39.752L44.1998 39.608Z" fill="white"/>
<path opacity="0.12" d="M17.7037 52.712C17.1897 52.0774 16.9379 51.2703 16.9997 50.456V50.696C16.9452 51.5126 17.2155 52.3177 17.7517 52.936L17.8637 52.824L17.7037 52.712Z" fill="white"/>
<path opacity="0.12" d="M52.1997 35.08L44.1997 39.608L44.3437 39.752L52.1997 35.304C52.6634 35.1079 53.0657 34.7904 53.3642 34.3849C53.6626 33.9794 53.8463 33.501 53.8957 33C53.7957 33.4553 53.5901 33.8807 53.2955 34.242C53.0009 34.6033 52.6256 34.8903 52.1997 35.08Z" fill="white"/>
<path opacity="0.25" d="M21.0157 13.1921L52.1997 30.92C52.6255 31.1097 53.0008 31.3967 53.2954 31.758C53.59 32.1193 53.7956 32.5447 53.8957 33C53.8462 32.499 53.6626 32.0206 53.3641 31.6151C53.0657 31.2096 52.6634 30.8921 52.1997 30.696L21.0157 12.9681C18.7917 11.6881 16.9517 12.7441 16.9517 15.3041V15.5441C16.9997 12.9841 18.7917 11.9281 21.0157 13.1921Z" fill="white"/>
</g>
<rect x="0.999756" y="1" width="216" height="64" rx="12" stroke="#1F1B26" stroke-width="2"/>
<defs>
<linearGradient id="paint0_linear_45_1246" x1="35.8797" y1="14.936" x2="9.0317" y2="41.784" gradientUnits="userSpaceOnUse">
<stop stop-color="#00A0FF"/>
<stop offset="0.01" stop-color="#00A1FF"/>
<stop offset="0.26" stop-color="#00BEFF"/>
<stop offset="0.51" stop-color="#00D2FF"/>
<stop offset="0.76" stop-color="#00DFFF"/>
<stop offset="1" stop-color="#00E3FF"/>
</linearGradient>
<linearGradient id="paint1_linear_45_1246" x1="55.1276" y1="33" x2="16.4237" y2="33" gradientUnits="userSpaceOnUse">
<stop stop-color="#FFE000"/>
<stop offset="0.41" stop-color="#FFBD00"/>
<stop offset="0.78" stop-color="#FFA500"/>
<stop offset="1" stop-color="#FF9C00"/>
</linearGradient>
<linearGradient id="paint2_linear_45_1246" x1="40.7278" y1="36.68" x2="4.31185" y2="73.0799" gradientUnits="userSpaceOnUse">
<stop stop-color="#FF3A44"/>
<stop offset="1" stop-color="#C31162"/>
</linearGradient>
<linearGradient id="paint3_linear_45_1246" x1="12.6799" y1="1.28799" x2="28.9359" y2="17.544" gradientUnits="userSpaceOnUse">
<stop stop-color="#32A071"/>
<stop offset="0.07" stop-color="#2DA771"/>
<stop offset="0.48" stop-color="#15CF74"/>
<stop offset="0.8" stop-color="#06E775"/>
<stop offset="1" stop-color="#00F076"/>
</linearGradient>
<clipPath id="clip0_45_1246">
<rect x="0.999756" y="1" width="216" height="64" rx="12" fill="white"/>
</clipPath>
</defs>
</svg>
